#!OML:ASF E:\Style3\Style3.ASF
:FULLY-SPECIFIED
:DEGREES
2737
root -0.0553114 17.8631 0.57329 -57.4785 88.8513 -74.6744
lowerback -9.48606 -2.29395 -0.587368
upperback -11.1299 -2.36428 1.64754
thorax -6.28685 -0.812824 1.93617
lowerneck -12.4074 -2.35179 -5.77347
upperneck 20.7993 -3.81606 9.22033
head 8.82259 -1.18651 3.70113
rclavicle -1.63252e-014 -9.93923e-016
rhumerus -60.2816 30.2802 -103.973
rradius 70.8811
rwrist -18.6028
rhand -17.9286 23.9522
rfingers 7.12502
rthumb 8.3392 -5.86316
lclavicle -1.63252e-014 -9.93923e-016
lhumerus -53.3806 -23.4775 103.518
lradius 76.6026
lwrist 44.44
lhand -23.1707 15.3812
lfingers 7.12502
lthumb 3.27822 45.3358
rfemur -17.0044 12.7142 16.7526
rtibia 13.7265
rfoot -12.4371 -19.8958
rtoes -18.0828
lfemur 0 0 0
ltibia 0
lfoot 0 0
ltoes 0
2738
root -0.0671873 17.8651 0.574224 -72.2179 88.8701 -89.3847
lowerback -9.27546 -2.39714 -0.523607
upperback -11.1648 -2.50392 1.68379
thorax -6.43841 -0.884259 1.94141
lowerneck -12.3754 -2.31802 -5.75045
upperneck 20.7452 -3.76842 9.2022
head 8.79321 -1.16629 3.69499
rclavicle -1.79652e-014 -1.17283e-014
rhumerus -60.1064 30.8862 -104.474
rradius 71.5562
rwrist -19.7478
rhand -17.3422 23.5824
rfingers 7.12502
rthumb 8.90515 -6.2097
lclavicle -1.79652e-014 -1.17283e-014
lhumerus -53.3256 -24.9708 104.655
lradius 77.1498
lwrist 45.9632
lhand -23.8984 15.6767
lfingers 7.12502
lthumb 2.57547 45.6409
rfemur -16.9442 12.9012 16.7948
rtibia 13.6797
rfoot -12.5341 -20.2774
rtoes -17.5585
lfemur 0 0 0
ltibia 0
lfoot 0 0
ltoes 0
2739
root -0.0774932 17.8672 0.576553 -83.3295 88.6992 -100.607
lowerback -9.21482 -2.46442 -0.326138
upperback -11.2385 -2.59307 1.7316
thorax -6.55725 -0.936876 1.88238
lowerneck -12.4256 -2.28814 -5.65817
upperneck 20.7764 -3.73629 9.15555
head 8.80798 -1.14694 3.66736
rclavicle 1.03865e-014 1.61016e-014
rhumerus -60.024 31.4977 -105.119
rradius 71.9993
rwrist -20.3995
rhand -17.3536 23.3954
rfingers 7.12502
rthumb 8.89414 -6.39714
lclavicle 1.03865e-014 1.61016e-014
lhumerus -53.3721 -26.6256 105.813
lradius 77.6933
lwrist 47.5937
lhand -24.4934 14.3415
lfingers 7.12502
lthumb 2.00084 44.3119
rfemur -17.0308 13.061 16.9559
rtibia 13.6144
rfoot -12.4443 -20.6462
rtoes -17.7494
lfemur 0 0 0
ltibia 0
lfoot 0 0
ltoes 0
2740
root -0.0836265 17.8694 0.580509 -87.0966 88.5585 -104.408
lowerback -9.143 -2.50675 -0.21658
upperback -11.2877 -2.64836 1.77141
thorax -6.6533 -0.968198 1.86528
lowerneck -12.4515 -2.24373 -5.57622
upperneck 20.8366 -3.68871 9.13517
head 8.82747 -1.11789 3.65324
rclavicle 2.78795e-014 2.78299e-015
rhumerus -59.9037 32.0833 -105.733
rradius 72.2452
rwrist -21.0127
rhand -17.1837 23.2631
rfingers 7.12502
rthumb 9.05806 -6.52241
lclavicle 2.78795e-014 2.78299e-015
lhumerus -53.4863 -28.2475 106.931
lradius 78.1806
lwrist 49.2565
lhand -24.5779 13.7481
lfingers 7.12502
lthumb 1.91926 43.7193
rfemur -17.0141 13.1921 17.0953
rtibia 13.5163
rfoot -12.3638 -20.8435
rtoes -17.7909
lfemur 0 0 0
ltibia 0
lfoot 0 0
ltoes 0
2741
root -0.0825973 17.8675 0.581681 -85.4575 88.6119 -102.666
lowerback -9.07746 -2.5121 -0.256311
upperback -11.2613 -2.66025 1.73238
thorax -6.66006 -0.974964 1.84792
lowerneck -12.4951 -2.20382 -5.50843
upperneck 20.8741 -3.65766 9.1823
head 8.84552 -1.09076 3.66257
rclavicle -5.34234e-015 -1.39149e-015
rhumerus -59.6647 32.6724 -106.319
rradius 72.4548
rwrist -21.8519
rhand -16.8372 23.2117
rfingers 7.12502
rthumb 9.39238 -6.55906
lclavicle -5.34234e-015 -1.39149e-015
lhumerus -53.5718 -29.9404 108.015
lradius 78.4941
lwrist 50.9979
lhand -24.5449 13.8653
lfingers 7.12502
lthumb 1.9511 43.8362
rfemur -16.8381 13.206 17.0781
rtibia 13.4241
rfoot -12.3847 -20.8004
rtoes -17.618
lfemur 0 0 0
ltibia 0
lfoot 0 0
ltoes 0
2742
root -0.0811543 17.8682 0.578407 -93.9376 88.6331 -111.157
lowerback -9.15375 -2.60894 -0.218639
upperback -11.2554 -2.79193 1.70113
thorax -6.61002 -1.04546 1.78641
lowerneck -12.5219 -2.15402 -5.48081
upperneck 20.9085 -3.61039 9.25669
head 8.85918 -1.05679 3.69012
rclavicle -1.33186e-014 7.65321e-015
rhumerus -59.352 33.3399 -106.847
rradius 72.6005
rwrist -22.9261
rhand -16.2992 23.2331
rfingers 7.12502
rthumb 9.91148 -6.51355
lclavicle -1.33186e-014 7.65321e-015
lhumerus -53.7125 -31.6671 109.139
lradius 78.7337
lwrist 52.7146
lhand -24.6024 13.6257
lfingers 7.12502
lthumb 1.89559 43.597
rfemur -16.7716 13.0982 17.0394
rtibia 13.3792
rfoot -12.4208 -20.905
rtoes -17.5501
lfemur 0 0 0
ltibia 0
lfoot 0 0
ltoes 0
2743
root -0.0849213 17.869 0.576501 -92.7393 88.5694 -110.017
lowerback -9.19405 -2.6011 -0.104432
upperback -11.2677 -2.78388 1.70786
thorax -6.60697 -1.04868 1.72896
lowerneck -12.5836 -2.12279 -5.47118
upperneck 20.9065 -3.58637 9.34576
head 8.86947 -1.03401 3.72225
rclavicle -1.29707e-014 1.11319e-014
rhumerus -58.9554 33.9113 -107.22
rradius 72.5855
rwrist -24.0933
rhand -15.401 23.2712
rfingers 7.12502
rthumb 10.778 -6.43232
lclavicle -1.29707e-014 1.11319e-014
lhumerus -53.8792 -33.458 110.333
lradius 78.816
lwrist 54.1624
lhand -24.7222 13.3327
lfingers 7.12502
lthumb 1.77989 43.305
rfemur -16.8611 12.925 17.122
rtibia 13.4082
rfoot -12.3635 -20.7355
rtoes -17.7717
lfemur 0 0 0
ltibia 0
lfoot 0 0
ltoes 0
2744
root -0.0916491 17.8686 0.578271 -73.2587 88.4782 -90.516
lowerback -9.09215 -2.4423 -0.0328516
upperback -11.2747 -2.57553 1.73809
thorax -6.67979 -0.948495 1.73231
lowerneck -12.6512 -2.09607 -5.48401
upperneck 20.9256 -3.56575 9.43943
head 8.88885 -1.01351 3.76007
rclavicle 2.045e-014 -1.39149e-015
rhumerus -58.6147 34.4865 -107.651
rradius 72.3111
rwrist -25.0058
rhand -14.8496 23.4054
rfingers 7.12502
rthumb 11.3098 -6.26965
lclavicle 2.045e-014 -1.39149e-015
lhumerus -54.1248 -35.229 111.527
lradius 78.766
lwrist 55.1396
lhand -24.8968 13.0651
lfingers 7.12502
lthumb 1.61126 43.0387
rfemur -16.9772 12.8019 17.2476
rtibia 13.4223
rfoot -12.114 -20.1673
rtoes -18.3093
lfemur 0 0 0
ltibia 0
lfoot 0 0
ltoes 0
2745
root -0.0962933 17.8677 0.582573 -63.5403 88.4764 -80.739
lowerback -8.96183 -2.40295 -0.175078
upperback -11.2826 -2.52023 1.73537
thorax -6.75644 -0.91096 1.81558
lowerneck -12.6597 -2.05541 -5.4854
upperneck 20.9074 -3.53408 9.56442
head 8.88377 -0.985441 3.80718
rclavicle 7.70291e-015 -2.48481e-014
rhumerus -58.3105 35.069 -108.164
rradius 71.8336
rwrist -25.5672
rhand -14.7322 23.4786
rfingers 7.12502
rthumb 11.4231 -6.19022
lclavicle 7.70291e-015 -2.48481e-014
lhumerus -54.4186 -36.8087 112.614
lradius 78.6268
lwrist 55.5184
lhand -25.0771 13.0071
lfingers 7.12502
lthumb 1.43706 42.982
rfemur -16.9505 12.8832 17.1902
rtibia 13.3655
rfoot -11.9736 -20.0181
rtoes -18.4956
lfemur 0 0 0
ltibia 0
lfoot 0 0
ltoes 0
2746
root -0.100173 17.8674 0.583284 -65.0136 88.5597 -82.208
lowerback -8.91089 -2.48396 -0.278602
upperback -11.2974 -2.62435 1.74443
thorax -6.79264 -0.954798 1.88179
lowerneck -12.7257 -2.00333 -5.50886
upperneck 20.9516 -3.48191 9.68172
head 8.90916 -0.947805 3.85958
rclavicle 4.24654e-014 -1.58034e-014
rhumerus -57.9415 35.7088 -108.621
rradius 71.2754
rwrist -26.3232
rhand -14.3555 23.3569
rfingers 7.12502
rthumb 11.7863 -6.29148
lclavicle 4.24654e-014 -1.58034e-014
lhumerus -54.67 -38.2973 113.649
lradius 78.4266
lwrist 55.5899
lhand -25.2251 13.2155
lfingers 7.12502
lthumb 1.29413 43.1913
rfemur -16.9276 12.8585 17.1217
rtibia 13.3178
rfoot -11.9265 -20.085
rtoes -18.6172
lfemur 0 0 0
ltibia 0
lfoot 0 0
ltoes 0
2747
root -0.103523 17.8681 0.584207 -69.3821 88.4539 -86.6328
lowerback -8.94488 -2.55336 -0.186308
upperback -11.3091 -2.71605 1.80502
thorax -6.78532 -1.00414 1.89021
lowerneck -12.8694 -1.9539 -5.5054
upperneck 21.0507 -3.44181 9.80586
head 8.96871 -0.909795 3.91022
rclavicle -1.6524e-014 -3.57812e-015
rhumerus -57.5676 36.3429 -109.014
rradius 70.5483
rwrist -27.0506
rhand -14.0531 23.2888
rfingers 7.12502
rthumb 12.0779 -6.34259
lclavicle -1.6524e-014 -3.57812e-015
lhumerus -54.9895 -39.8145 114.721
lradius 78.2867
lwrist 55.7936
lhand -25.7857 13.1711
lfingers 7.12502
lthumb 0.752696 43.1495
rfemur -16.9699 12.9136 17.2356
rtibia 13.2746
rfoot -12.078 -20.1104
rtoes -18.0889
lfemur 0 0 0
ltibia 0
lfoot 0 0
ltoes 0
2748
root -0.108648 17.8697 0.584096 -72.5654 88.4175 -89.8832
lowerback -8.94762 -2.61816 -0.159416
upperback -11.3321 -2.80037 1.83155
thorax -6.80662 -1.04606 1.90101
lowerneck -13.0059 -1.93068 -5.44804
upperneck 21.1307 -3.42957 9.83482
head 9.0205 -0.891427 3.91454
rclavicle -1.16538e-014 -1.32192e-014
rhumerus -57.2279 36.9479 -109.441
rradius 69.6383
rwrist -27.3207
rhand -14.2275 23.4038
rfingers 7.12502
rthumb 11.9098 -6.23742
lclavicle -1.16538e-014 -1.32192e-014
lhumerus -55.3077 -41.3027 115.668
lradius 78.2204
lwrist 56.2553
lhand -26.618 13.3685
lfingers 7.12502
lthumb -0.0511777 43.3483
rfemur -17.024 12.8533 17.2843
rtibia 13.2125
rfoot -12.0501 -20.1193
rtoes -18.025
lfemur 0 0 0
ltibia 0
lfoot 0 0
ltoes 0
2749
root -0.114478 17.8705 0.584588 -75.5491 88.4163 -92.8753
lowerback -8.86922 -2.69683 -0.192063
upperback -11.3544 -2.90297 1.85333
thorax -6.86894 -1.09331 1.94287
lowerneck -13.0548 -1.91288 -5.39773
upperneck 21.1596 -3.4212 9.85653
head 9.03857 -0.879274 3.91544
rclavicle 1.46107e-014 -2.98177e-016
rhumerus -56.9322 37.4671 -109.801
rradius 68.7346
rwrist -27.2383
rhand -14.3238 23.284
rfingers 7.12502
rthumb 11.8169 -6.36264
lclavicle 1.46107e-014 -2.98177e-016
lhumerus -55.626 -42.8158 116.575
lradius 78.1128
lwrist 57.0041
lhand -27.4933 14.1547
lfingers 7.12502
lthumb -0.896567 44.1326
rfemur -17.013 12.8004 17.3021
rtibia 13.1456
rfoot -12.0664 -20.1128
rtoes -17.7097
lfemur 0 0 0
ltibia 0
lfoot 0 0
ltoes 0
2750
root -0.119064 17.8699 0.586175 -76.1162 88.414 -93.3843
lowerback -8.78591 -2.75426 -0.245685
upperback -11.351 -2.97956 1.87012
thorax -6.90543 -1.12762 1.99161
lowerneck -13.0068 -1.89073 -5.36815
upperneck 21.117 -3.40295 9.89017
head 9.01341 -0.86671 3.92293
rclavicle 4.28132e-014 -1.18277e-014
rhumerus -56.5828 38.0277 -110.088
rradius 67.7074
rwrist -27.1089
rhand -13.9796 23.1521
rfingers 7.12502
rthumb 12.1488 -6.4752
lclavicle 4.28132e-014 -1.18277e-014
lhumerus -56.0103 -44.2151 117.41
lradius 78.0587
lwrist 57.9418
lhand -28.333 14.409
lfingers 7.12502
lthumb -1.70748 44.3819
rfemur -16.9422 12.8052 17.3196
rtibia 13.1193
rfoot -12.1192 -20.1131
rtoes -17.4699
lfemur 0 0 0
ltibia 0
lfoot 0 0
ltoes 0
2751
root -0.124147 17.8688 0.587386 -73.5764 88.4151 -90.7254
lowerback -8.63284 -2.76024 -0.328812
upperback -11.3259 -2.99069 1.86978
thorax -6.95853 -1.12896 2.04324
lowerneck -13.0069 -1.87038 -5.33192
upperneck 21.1012 -3.39426 9.9493
head 9.00781 -0.85346 3.93804
rclavicle -2.70099e-014 1.88845e-014
rhumerus -56.2105 38.4671 -110.245
rradius 66.573
rwrist -26.442
rhand -14.1142 23.5906
rfingers 7.12502
rthumb 12.019 -6.04427
lclavicle -2.70099e-014 1.88845e-014
lhumerus -56.4116 -45.6931 118.234
lradius 77.9804
lwrist 59.1298
lhand -29.531 13.5581
lfingers 7.12502
lthumb -2.8645 43.5186
rfemur -16.8153 12.7715 17.3404
rtibia 13.0872
rfoot -11.9941 -20.0271
rtoes -17.8971
lfemur 0 0 0
ltibia 0
lfoot 0 0
ltoes 0
